<?xml version="1.0" encoding="utf-8"?>
<svg id="master-artboard" viewBox="0 0 1400 980" version="1.1" xmlns="http://www.w3.org/2000/svg" x="0px" y="0px" style="enable-background:new 0 0 1400 980;" width="1400px" height="980px" xmlns:xlink="http://www.w3.org/1999/xlink"><rect id="ee-background" x="0" y="0" width="1400" height="980" style="fill: white; fill-opacity: 0; pointer-events: none;"/>

<g transform="matrix(1, 0, 0, 1, -2.842170943040401e-14, 0)">
		<defs>
			<path d="M 0 0 H 1400 V 980 H 0 V 0 Z" id="SVGID_1_"/>
		<radialGradient id="gradient-0" gradientUnits="objectBoundingBox" cx="0.5" cy="0.5" r="0.5">
                <stop offset="0" style="stop-color: #fff200"/>
                <stop offset="1" style="stop-color: #999100"/>
              </radialGradient><radialGradient id="gradient-1" gradientUnits="objectBoundingBox" cx="0.5" cy="0.5" r="0.5" gradientTransform="matrix(-0.9994310992232978, -0.04815756471646271, 0.007833813460748209, -0.3317973650998348, 0.9957985407850375, 0.6899774630455037)">
                <stop offset="0" style="stop-color: #000000"/>
                <stop offset="1" style="stop-color: #000000"/>
              </radialGradient><radialGradient id="gradient-2" gradientUnits="objectBoundingBox" cx="0.5" cy="0.5" r="0.5" gradientTransform="matrix(0.9991960525512695, -0.05293947458267212, 0.00987851619720459, 0.3250318169593811, -0.0045372843742370605, 0.3639538288116455)">
                <stop offset="0" style="stop-color: #000000"/>
                <stop offset="1" style="stop-color: #000000"/>
              </radialGradient><linearGradient id="gradient-3" gradientUnits="objectBoundingBox" x1="0.3947822153568268" y1="-1.304295539855957" x2="0.3947821855545044" y2="-0.3042955696582794" gradientTransform="matrix(0.9978193852713018, -0.09429061330486538, 0.0013057107880752195, 0.028198460605425406, 0.0046326509018142555, 0.11876962005654942)">
                <stop offset="0" style="stop-color: rgb(162, 167, 22);"/>
                <stop offset="1" style="stop-color: rgb(0, 0, 0);"/>
              </linearGradient><linearGradient id="gradient-4" gradientUnits="objectBoundingBox" x1="0.6616569757461548" y1="-8.107378959655762" x2="0.6616569757461548" y2="-7.107378959655762" gradientTransform="matrix(-0.9994282006897013, -0.04465868733010181, 0.003704477689496777, -0.1445113892405745, 1.1147538552137493, -0.25351445268340356)">
                <stop offset="0" style="stop-color: rgb(162, 167, 22);"/>
                <stop offset="1" style="stop-color: #000000"/>
              </linearGradient></defs>
		<use style="overflow: visible; fill: rgb(255, 255, 255); fill-opacity: 0.65; stroke: rgb(255, 200, 0); paint-order: fill; stroke-width: 5;" xlink:href="#SVGID_1_"/>
		<clipPath id="SVGID_2_">
			<use style="overflow:visible;" xlink:href="#SVGID_1_"/>
		</clipPath>
		<radialGradient id="SVGID_3_" gradientUnits="objectBoundingBox" cx="0.5" cy="0.5" r="0.5">
			<stop offset="0" style="stop-color:#F5841F"/>
			<stop offset="1" style="stop-color:#FFE300"/>
		</radialGradient>
		<path class="st0" d="M1453.1,139.2l-25.3-43.8l25.3-43.8c0.9-1.5,0.9-3.5,0-5l-26.7-46.3c-0.9-1.5-2.5-2.5-4.3-2.5h-50.6&#10;&#9;&#9;&#9;l-25.3-43.8c-0.9-1.5-2.5-2.5-4.3-2.5h-53.5c-1.8,0-3.4,1-4.3,2.5l-25.3,43.8h-47.7l-25.3-43.8c-0.9-1.5-2.5-2.5-4.3-2.5H1128&#10;&#9;&#9;&#9;c-1.8,0-3.4,1-4.3,2.5l-25.3,43.8h-47.7l-25.3-43.8c-0.9-1.5-2.5-2.5-4.3-2.5h-53.5c-1.8,0-3.4,1-4.3,2.5L938-2.3h-47.7L865-46.1&#10;&#9;&#9;&#9;c-0.9-1.5-2.5-2.5-4.3-2.5h-53.5c-1.8,0-3.4,1-4.3,2.5L777.6-2.3h-47.7l-25.3-43.8c-0.9-1.5-2.5-2.5-4.3-2.5h-53.5&#10;&#9;&#9;&#9;c-1.8,0-3.4,1-4.3,2.5L617.2-2.3h-47.7l-25.3-43.8c-0.9-1.5-2.5-2.5-4.3-2.5h-53.5c-1.8,0-3.4,1-4.3,2.5L456.7-2.3h-47.7&#10;&#9;&#9;&#9;l-25.3-43.8c-0.9-1.5-2.5-2.5-4.3-2.5H326c-1.8,0-3.4,1-4.3,2.5L296.3-2.3h-47.7l-25.3-43.8c-0.9-1.5-2.5-2.5-4.3-2.5h-53.5&#10;&#9;&#9;&#9;c-1.8,0-3.4,1-4.3,2.5L135.9-2.3H88.2L63-46.1c-0.9-1.5-2.5-2.5-4.3-2.5H5.2c-1.8,0-3.4,1-4.3,2.5L-25.9,0.2c-0.9,1.5-0.9,3.5,0,5&#10;&#9;&#9;&#9;L-0.6,49l-25.3,43.8c-0.9,1.5-0.9,3.5,0,5l25.3,43.8l-25.3,43.8c-0.9,1.5-0.9,3.5,0,5l25.3,43.8l-25.3,43.8c-0.9,1.5-0.9,3.5,0,5&#10;&#9;&#9;&#9;l25.3,43.8l-25.3,43.8c-0.9,1.5-0.9,3.5,0,5l25.3,43.8l-25.3,43.8c-0.9,1.5-0.9,3.5,0,5l25.3,43.8l-25.3,43.8&#10;&#9;&#9;&#9;c-0.9,1.5-0.9,3.5,0,5l25.3,43.8l-25.3,43.8c-0.9,1.5-0.9,3.5,0,5l25.3,43.8l-25.3,43.8c-0.9,1.5-0.9,3.5,0,5l25.3,43.8&#10;&#9;&#9;&#9;l-25.3,43.8c-0.9,1.5-0.9,3.5,0,5l25.3,43.8l-25.3,43.8c-0.9,1.5-0.9,3.5,0,5l25.3,43.8l-25.3,43.8c-0.9,1.5-0.9,3.5,0,5&#10;&#9;&#9;&#9;l26.7,46.3c0.9,1.5,2.5,2.5,4.3,2.5h53.5c1.8,0,3.4-1,4.3-2.5l25.3-43.8h47.7l25.3,43.8c0.9,1.5,2.5,2.5,4.3,2.5H219&#10;&#9;&#9;&#9;c1.8,0,3.4-1,4.3-2.5l25.3-43.8h47.7l25.3,43.8c0.9,1.5,2.5,2.5,4.3,2.5h53.5c1.8,0,3.4-1,4.3-2.5l25.3-43.8h47.7l25.3,43.8&#10;&#9;&#9;&#9;c0.9,1.5,2.5,2.5,4.3,2.5h53.5c1.8,0,3.4-1,4.3-2.5l25.3-43.8h47.7l25.3,43.8c0.9,1.5,2.5,2.5,4.3,2.5h53.5c1.8,0,3.4-1,4.3-2.5&#10;&#9;&#9;&#9;l25.3-43.8h47.7l25.3,43.8c0.9,1.5,2.5,2.5,4.3,2.5h53.5c1.8,0,3.4-1,4.3-2.5l25.3-43.8H938l25.3,43.8c0.9,1.5,2.5,2.5,4.3,2.5&#10;&#9;&#9;&#9;h53.5c1.8,0,3.4-1,4.3-2.5l25.3-43.8h47.7l25.3,43.8c0.9,1.5,2.5,2.5,4.3,2.5h53.5c1.8,0,3.4-1,4.3-2.5l25.3-43.8h47.7l25.3,43.8&#10;&#9;&#9;&#9;c0.9,1.5,2.5,2.5,4.3,2.5h53.5c1.8,0,3.4-1,4.3-2.5l25.3-43.8h50.6c1.8,0,3.4-1,4.3-2.5l26.7-46.3c0.9-1.5,0.9-3.5,0-5l-25.3-43.8&#10;&#9;&#9;&#9;l25.3-43.8c0.9-1.5,0.9-3.5,0-5l-25.3-43.8l25.3-43.8c0.9-1.5,0.9-3.5,0-5l-25.3-43.8l25.3-43.8c0.9-1.5,0.9-3.5,0-5l-25.3-43.8&#10;&#9;&#9;&#9;l25.3-43.8c0.9-1.5,0.9-3.5,0-5l-25.3-43.8l25.3-43.8c0.9-1.5,0.9-3.5,0-5l-25.3-43.8l25.3-43.8c0.9-1.5,0.9-3.5,0-5l-25.3-43.8&#10;&#9;&#9;&#9;l25.3-43.8c0.9-1.5,0.9-3.5,0-5l-25.3-43.8l25.3-43.8c0.9-1.5,0.9-3.5,0-5l-25.3-43.8l25.3-43.8&#10;&#9;&#9;&#9;C1454,142.6,1454,140.7,1453.1,139.2z M1443,49l-23.8,41.3h-47.7l-11.9-20.7L1347.6,49l11.9-20.7l11.9-20.7h47.7L1443,49z&#10;&#9;&#9;&#9; M1362.8,188l-11.9,20.7l-11.9,20.7h-47.7l-11.9-20.7l-11.9-20.7l11.9-20.7l11.9-20.7h47.7l11.9,20.7L1362.8,188z M1362.8,280.6&#10;&#9;&#9;&#9;l-11.9,20.7l-11.9,20.7h-47.7l-11.9-20.7l-11.9-20.7l11.9-20.7l11.9-20.7h47.7l11.9,20.7L1362.8,280.6z M1362.8,465.8l-11.9,20.7&#10;&#9;&#9;&#9;l-11.9,20.7h-47.7l-11.9-20.7l-11.9-20.7l11.9-20.7l11.9-20.7h47.7l11.9,20.7L1362.8,465.8z M1362.8,558.4l-11.9,20.7l-11.9,20.7&#10;&#9;&#9;&#9;h-47.7l-11.9-20.7l-11.9-20.7l11.9-20.7l11.9-20.7h47.7l11.9,20.7L1362.8,558.4z M1362.8,651l-11.9,20.7l-11.9,20.7h-47.7&#10;&#9;&#9;&#9;l-11.9-20.7l-11.9-20.7l11.9-20.7l11.9-20.7h47.7l11.9,20.7L1362.8,651z M1362.8,743.6l-11.9,20.7l-11.9,20.7h-47.7l-11.9-20.7&#10;&#9;&#9;&#9;l-11.9-20.7l11.9-20.7l11.9-20.7h47.7l11.9,20.7L1362.8,743.6z M1362.8,836.2l-11.9,20.7l-11.9,20.7h-47.7l-11.9-20.7l-11.9-20.7&#10;&#9;&#9;&#9;l11.9-20.7l11.9-20.7h47.7l11.9,20.7L1362.8,836.2z M1362.8,928.8l-11.9,20.7l-11.9,20.7h-47.7l-11.9-20.7l-11.9-20.7l11.9-20.7&#10;&#9;&#9;&#9;l11.9-20.7h47.7l11.9,20.7L1362.8,928.8z M1258.8,1016.4h-47.7l-11.9-20.7l-11.9-20.7l11.9-20.7l11.9-20.7h47.7l11.9,20.7&#10;&#9;&#9;&#9;l11.9,20.7l-11.9,20.7L1258.8,1016.4z M1130.9,970.1l-11.9-20.7l-11.9-20.7l11.9-20.7l11.9-20.7h47.7l11.9,20.7l11.9,20.7&#10;&#9;&#9;&#9;l-11.9,20.7l-11.9,20.7H1130.9z M1098.4,1016.4h-47.7l-11.9-20.7l-11.9-20.7l11.9-20.7l11.9-20.7h47.7l11.9,20.7l11.9,20.7&#10;&#9;&#9;&#9;l-11.9,20.7L1098.4,1016.4z M970.5,970.1l-11.9-20.7l-11.9-20.7l11.9-20.7l11.9-20.7h47.7l11.9,20.7l11.9,20.7l-11.9,20.7&#10;&#9;&#9;&#9;l-11.9,20.7H970.5z M938,1016.4h-47.7l-11.9-20.7l-11.9-20.7l11.9-20.7l11.9-20.7H938l11.9,20.7l11.9,20.7l-11.9,20.7L938,1016.4z&#10;&#9;&#9;&#9; M810.1,970.1l-11.9-20.7l-11.9-20.7l11.9-20.7l11.9-20.7h47.7l11.9,20.7l11.9,20.7l-11.9,20.7l-11.9,20.7H810.1z M777.6,1016.4&#10;&#9;&#9;&#9;h-47.7l-11.9-20.7L706,975.1l11.9-20.7l11.9-20.7h47.7l11.9,20.7l11.9,20.7l-11.9,20.7L777.6,1016.4z M617.2,1016.4h-47.7&#10;&#9;&#9;&#9;l-11.9-20.7l-11.9-20.7l11.9-20.7l11.9-20.7h47.7l11.9,20.7l11.9,20.7l-11.9,20.7L617.2,1016.4z M456.7,1016.4h-47.7l-11.9-20.7&#10;&#9;&#9;&#9;l-11.9-20.7l11.9-20.7l11.9-20.7h47.7l11.9,20.7l11.9,20.7l-11.9,20.7L456.7,1016.4z M296.3,1016.4h-47.7l-11.9-20.7l-11.9-20.7&#10;&#9;&#9;&#9;l11.9-20.7l11.9-20.7h47.7l11.9,20.7l11.9,20.7l-11.9,20.7L296.3,1016.4z M135.9,1016.4H88.2l-11.9-20.7l-11.9-20.7l11.9-20.7&#10;&#9;&#9;&#9;l11.9-20.7h47.7l11.9,20.7l11.9,20.7l-11.9,20.7L135.9,1016.4z M64.4,882.5l11.9-20.7l11.9-20.7h47.7l11.9,20.7l11.9,20.7&#10;&#9;&#9;&#9;l-11.9,20.7l-11.9,20.7H88.2l-11.9-20.7L64.4,882.5z M64.4,789.9l11.9-20.7l11.9-20.7h47.7l11.9,20.7l11.9,20.7l-11.9,20.7&#10;&#9;&#9;&#9;l-11.9,20.7H88.2l-11.9-20.7L64.4,789.9z M64.4,697.3l11.9-20.7L88.2,656h47.7l11.9,20.7l11.9,20.7L147.9,718l-11.9,20.7H88.2&#10;&#9;&#9;&#9;L76.3,718L64.4,697.3z M64.4,604.7L76.3,584l11.9-20.7h47.7l11.9,20.7l11.9,20.7l-11.9,20.7L135.9,646H88.2l-11.9-20.7L64.4,604.7&#10;&#9;&#9;&#9;z M64.4,512.1l11.9-20.7l11.9-20.7h47.7l11.9,20.7l11.9,20.7l-11.9,20.7l-11.9,20.7H88.2l-11.9-20.7L64.4,512.1z M64.4,326.9&#10;&#9;&#9;&#9;l11.9-20.7l11.9-20.7h47.7l11.9,20.7l11.9,20.7l-11.9,20.7l-11.9,20.7H88.2l-11.9-20.7L64.4,326.9z M64.4,234.3l11.9-20.7&#10;&#9;&#9;&#9;L88.2,193h47.7l11.9,20.7l11.9,20.7l-11.9,20.7l-11.9,20.7H88.2l-11.9-20.7L64.4,234.3z M64.4,141.7L76.3,121l11.9-20.7h47.7&#10;&#9;&#9;&#9;l11.9,20.7l11.9,20.7l-11.9,20.7L135.9,183H88.2l-11.9-20.7L64.4,141.7z M64.4,49l11.9-20.7L88.2,7.7h47.7l11.9,20.7L159.8,49&#10;&#9;&#9;&#9;l-11.9,20.7l-11.9,20.7H88.2L76.3,69.7L64.4,49z M248.7,7.7h47.7l11.9,20.7L320.2,49l-11.9,20.7l-11.9,20.7h-47.7l-11.9-20.7&#10;&#9;&#9;&#9;L224.8,49l11.9-20.7L248.7,7.7z M409.1,7.7h47.7l11.9,20.7L480.6,49l-11.9,20.7l-11.9,20.7h-47.7l-11.9-20.7L385.2,49l11.9-20.7&#10;&#9;&#9;&#9;L409.1,7.7z M569.5,7.7h47.7l11.9,20.7L641,49l-11.9,20.7l-11.9,20.7h-47.7l-11.9-20.7L545.6,49l11.9-20.7L569.5,7.7z M729.9,7.7&#10;&#9;&#9;&#9;h47.7l11.9,20.7L801.4,49l-11.9,20.7l-11.9,20.7h-47.7l-11.9-20.7L706,49l11.9-20.7L729.9,7.7z M857.8,54l11.9,20.7l11.9,20.7&#10;&#9;&#9;&#9;L869.7,116l-11.9,20.7h-47.7L798.1,116l-11.9-20.7l11.9-20.7L810.1,54H857.8z M890.3,7.7H938l11.9,20.7L961.8,49l-11.9,20.7&#10;&#9;&#9;&#9;L938,90.3h-47.7l-11.9-20.7L866.4,49l11.9-20.7L890.3,7.7z M1018.2,54l11.9,20.7l11.9,20.7l-11.9,20.7l-11.9,20.7h-47.7L958.5,116&#10;&#9;&#9;&#9;l-11.9-20.7l11.9-20.7L970.5,54H1018.2z M1050.7,7.7h47.7l11.9,20.7l11.9,20.7l-11.9,20.7l-11.9,20.7h-47.7l-11.9-20.7L1026.8,49&#10;&#9;&#9;&#9;l11.9-20.7L1050.7,7.7z M1178.6,54l11.9,20.7l11.9,20.7l-11.9,20.7l-11.9,20.7h-47.7l-11.9-20.7L1107,95.3l11.9-20.7l11.9-20.7&#10;&#9;&#9;&#9;H1178.6z M1211.1,7.7h47.7l11.9,20.7l11.9,20.7l-11.9,20.7l-11.9,20.7h-47.7l-11.9-20.7L1187.2,49l11.9-20.7L1211.1,7.7z&#10;&#9;&#9;&#9; M1282.6,141.7l-11.9,20.7l-11.9,20.7h-47.7l-11.9-20.7l-11.9-20.7l11.9-20.7l11.9-20.7h47.7l11.9,20.7L1282.6,141.7z&#10;&#9;&#9;&#9; M1282.6,234.3l-11.9,20.7l-11.9,20.7h-47.7l-11.9-20.7l-11.9-20.7l11.9-20.7l11.9-20.7h47.7l11.9,20.7L1282.6,234.3z&#10;&#9;&#9;&#9; M1282.6,326.9l-11.9,20.7l-11.9,20.7h-47.7l-11.9-20.7l-11.9-20.7l11.9-20.7l11.9-20.7h47.7l11.9,20.7L1282.6,326.9z&#10;&#9;&#9;&#9; M1282.6,512.1l-11.9,20.7l-11.9,20.7h-47.7l-11.9-20.7l-11.9-20.7l11.9-20.7l11.9-20.7h47.7l11.9,20.7L1282.6,512.1z&#10;&#9;&#9;&#9; M1282.6,604.7l-11.9,20.7l-11.9,20.7h-47.7l-11.9-20.7l-11.9-20.7l11.9-20.7l11.9-20.7h47.7l11.9,20.7L1282.6,604.7z&#10;&#9;&#9;&#9; M1282.6,697.3l-11.9,20.7l-11.9,20.7h-47.7l-11.9-20.7l-11.9-20.7l11.9-20.7l11.9-20.7h47.7l11.9,20.7L1282.6,697.3z&#10;&#9;&#9;&#9; M1282.6,789.9l-11.9,20.7l-11.9,20.7h-47.7l-11.9-20.7l-11.9-20.7l11.9-20.7l11.9-20.7h47.7l11.9,20.7L1282.6,789.9z&#10;&#9;&#9;&#9; M1282.6,882.5l-11.9,20.7l-11.9,20.7h-47.7l-11.9-20.7l-11.9-20.7l11.9-20.7l11.9-20.7h47.7l11.9,20.7L1282.6,882.5z&#10;&#9;&#9;&#9; M1098.4,923.8h-47.7l-11.9-20.7l-11.9-20.7l11.9-20.7l11.9-20.7h47.7l11.9,20.7l11.9,20.7l-11.9,20.7L1098.4,923.8z M938,923.8&#10;&#9;&#9;&#9;h-47.7l-11.9-20.7l-11.9-20.7l11.9-20.7l11.9-20.7H938l11.9,20.7l11.9,20.7l-11.9,20.7L938,923.8z M777.6,923.8h-47.7l-11.9-20.7&#10;&#9;&#9;&#9;L706,882.5l11.9-20.7l11.9-20.7h47.7l11.9,20.7l11.9,20.7l-11.9,20.7L777.6,923.8z M617.2,923.8h-47.7l-11.9-20.7l-11.9-20.7&#10;&#9;&#9;&#9;l11.9-20.7l11.9-20.7h47.7l11.9,20.7l11.9,20.7l-11.9,20.7L617.2,923.8z M456.7,923.8h-47.7l-11.9-20.7l-11.9-20.7l11.9-20.7&#10;&#9;&#9;&#9;l11.9-20.7h47.7l11.9,20.7l11.9,20.7l-11.9,20.7L456.7,923.8z M296.3,923.8h-47.7l-11.9-20.7l-11.9-20.7l11.9-20.7l11.9-20.7h47.7&#10;&#9;&#9;&#9;l11.9,20.7l11.9,20.7l-11.9,20.7L296.3,923.8z M168.5,877.5l-11.9-20.7l-11.9-20.7l11.9-20.7l11.9-20.7h47.7l11.9,20.7l11.9,20.7&#10;&#9;&#9;&#9;l-11.9,20.7l-11.9,20.7H168.5z M144.6,743.6l11.9-20.7l11.9-20.7h47.7l11.9,20.7l11.9,20.7l-11.9,20.7l-11.9,20.7h-47.7&#10;&#9;&#9;&#9;l-11.9-20.7L144.6,743.6z M144.6,651l11.9-20.7l11.9-20.7h47.7l11.9,20.7L240,651l-11.9,20.7l-11.9,20.7h-47.7l-11.9-20.7&#10;&#9;&#9;&#9;L144.6,651z M144.6,558.4l11.9-20.7l11.9-20.7h47.7l11.9,20.7l11.9,20.7L228.1,579l-11.9,20.7h-47.7L156.5,579L144.6,558.4z&#10;&#9;&#9;&#9; M144.6,465.8l11.9-20.7l11.9-20.7h47.7l11.9,20.7l11.9,20.7l-11.9,20.7l-11.9,20.7h-47.7l-11.9-20.7L144.6,465.8z M144.6,280.6&#10;&#9;&#9;&#9;l11.9-20.7l11.9-20.7h47.7l11.9,20.7l11.9,20.7l-11.9,20.7l-11.9,20.7h-47.7l-11.9-20.7L144.6,280.6z M144.6,188l11.9-20.7&#10;&#9;&#9;&#9;l11.9-20.7h47.7l11.9,20.7L240,188l-11.9,20.7l-11.9,20.7h-47.7l-11.9-20.7L144.6,188z M248.7,100.3h47.7l11.9,20.7l11.9,20.7&#10;&#9;&#9;&#9;l-11.9,20.7L296.3,183h-47.7l-11.9-20.7l-11.9-20.7l11.9-20.7L248.7,100.3z M409.1,100.3h47.7l11.9,20.7l11.9,20.7l-11.9,20.7&#10;&#9;&#9;&#9;L456.7,183h-47.7l-11.9-20.7l-11.9-20.7l11.9-20.7L409.1,100.3z M569.5,100.3h47.7l11.9,20.7l11.9,20.7l-11.9,20.7L617.2,183&#10;&#9;&#9;&#9;h-47.7l-11.9-20.7l-11.9-20.7l11.9-20.7L569.5,100.3z M729.9,100.3h47.7l11.9,20.7l11.9,20.7l-11.9,20.7L777.6,183h-47.7&#10;&#9;&#9;&#9;l-11.9-20.7L706,141.7l11.9-20.7L729.9,100.3z M857.8,146.7l11.9,20.7l11.9,20.7l-11.9,20.7l-11.9,20.7h-47.7l-11.9-20.7&#10;&#9;&#9;&#9;L786.2,188l11.9-20.7l11.9-20.7H857.8z M890.3,100.3H938l11.9,20.7l11.9,20.7l-11.9,20.7L938,183h-47.7l-11.9-20.7l-11.9-20.7&#10;&#9;&#9;&#9;l11.9-20.7L890.3,100.3z M1018.2,146.7l11.9,20.7L1042,188l-11.9,20.7l-11.9,20.7h-47.7l-11.9-20.7L946.6,188l11.9-20.7l11.9-20.7&#10;&#9;&#9;&#9;H1018.2z M1050.7,100.3h47.7l11.9,20.7l11.9,20.7l-11.9,20.7l-11.9,20.7h-47.7l-11.9-20.7l-11.9-20.7l11.9-20.7L1050.7,100.3z&#10;&#9;&#9;&#9; M1178.6,146.7l11.9,20.7l11.9,20.7l-11.9,20.7l-11.9,20.7h-47.7l-11.9-20.7L1107,188l11.9-20.7l11.9-20.7H1178.6z M1202.4,280.6&#10;&#9;&#9;&#9;l-11.9,20.7l-11.9,20.7h-47.7l-11.9-20.7l-11.9-20.7l11.9-20.7l11.9-20.7h47.7l11.9,20.7L1202.4,280.6z M1202.4,465.8l-11.9,20.7&#10;&#9;&#9;&#9;l-11.9,20.7h-47.7l-11.9-20.7l-11.9-20.7l11.9-20.7l11.9-20.7h47.7l11.9,20.7L1202.4,465.8z M1202.4,558.4l-11.9,20.7l-11.9,20.7&#10;&#9;&#9;&#9;h-47.7l-11.9-20.7l-11.9-20.7l11.9-20.7l11.9-20.7h47.7l11.9,20.7L1202.4,558.4z M1202.4,651l-11.9,20.7l-11.9,20.7h-47.7&#10;&#9;&#9;&#9;l-11.9-20.7L1107,651l11.9-20.7l11.9-20.7h47.7l11.9,20.7L1202.4,651z M1202.4,743.6l-11.9,20.7l-11.9,20.7h-47.7l-11.9-20.7&#10;&#9;&#9;&#9;l-11.9-20.7l11.9-20.7l11.9-20.7h47.7l11.9,20.7L1202.4,743.6z M1098.4,831.2h-47.7l-11.9-20.7l-11.9-20.7l11.9-20.7l11.9-20.7&#10;&#9;&#9;&#9;h47.7l11.9,20.7l11.9,20.7l-11.9,20.7L1098.4,831.2z M970.5,784.9l-11.9-20.7l-11.9-20.7l11.9-20.7l11.9-20.7h47.7l11.9,20.7&#10;&#9;&#9;&#9;l11.9,20.7l-11.9,20.7l-11.9,20.7H970.5z M938,831.2h-47.7l-11.9-20.7l-11.9-20.7l11.9-20.7l11.9-20.7H938l11.9,20.7l11.9,20.7&#10;&#9;&#9;&#9;l-11.9,20.7L938,831.2z M810.1,784.9l-11.9-20.7l-11.9-20.7l11.9-20.7l11.9-20.7h47.7l11.9,20.7l11.9,20.7l-11.9,20.7l-11.9,20.7&#10;&#9;&#9;&#9;H810.1z M777.6,831.2h-47.7l-11.9-20.7L706,789.9l11.9-20.7l11.9-20.7h47.7l11.9,20.7l11.9,20.7l-11.9,20.7L777.6,831.2z&#10;&#9;&#9;&#9; M617.2,831.2h-47.7l-11.9-20.7l-11.9-20.7l11.9-20.7l11.9-20.7h47.7l11.9,20.7l11.9,20.7l-11.9,20.7L617.2,831.2z M456.7,831.2&#10;&#9;&#9;&#9;h-47.7l-11.9-20.7l-11.9-20.7l11.9-20.7l11.9-20.7h47.7l11.9,20.7l11.9,20.7l-11.9,20.7L456.7,831.2z M296.3,831.2h-47.7&#10;&#9;&#9;&#9;l-11.9-20.7l-11.9-20.7l11.9-20.7l11.9-20.7h47.7l11.9,20.7l11.9,20.7l-11.9,20.7L296.3,831.2z M224.8,697.3l11.9-20.7l11.9-20.7&#10;&#9;&#9;&#9;h47.7l11.9,20.7l11.9,20.7L308.3,718l-11.9,20.7h-47.7L236.7,718L224.8,697.3z M224.8,604.7l11.9-20.7l11.9-20.7h47.7l11.9,20.7&#10;&#9;&#9;&#9;l11.9,20.7l-11.9,20.7L296.3,646h-47.7l-11.9-20.7L224.8,604.7z M224.8,512.1l11.9-20.7l11.9-20.7h47.7l11.9,20.7l11.9,20.7&#10;&#9;&#9;&#9;l-11.9,20.7l-11.9,20.7h-47.7l-11.9-20.7L224.8,512.1z M224.8,326.9l11.9-20.7l11.9-20.7h47.7l11.9,20.7l11.9,20.7l-11.9,20.7&#10;&#9;&#9;&#9;l-11.9,20.7h-47.7l-11.9-20.7L224.8,326.9z M224.8,234.3l11.9-20.7l11.9-20.7h47.7l11.9,20.7l11.9,20.7l-11.9,20.7l-11.9,20.7&#10;&#9;&#9;&#9;h-47.7l-11.9-20.7L224.8,234.3z M409.1,193h47.7l11.9,20.7l11.9,20.7l-11.9,20.7l-11.9,20.7h-47.7l-11.9-20.7l-11.9-20.7&#10;&#9;&#9;&#9;l11.9-20.7L409.1,193z M569.5,193h47.7l11.9,20.7l11.9,20.7l-11.9,20.7l-11.9,20.7h-47.7l-11.9-20.7l-11.9-20.7l11.9-20.7&#10;&#9;&#9;&#9;L569.5,193z M729.9,193h47.7l11.9,20.7l11.9,20.7l-11.9,20.7l-11.9,20.7h-47.7l-11.9-20.7L706,234.3l11.9-20.7L729.9,193z&#10;&#9;&#9;&#9; M857.8,239.3l11.9,20.7l11.9,20.7l-11.9,20.7l-11.9,20.7h-47.7l-11.9-20.7l-11.9-20.7l11.9-20.7l11.9-20.7H857.8z M890.3,193H938&#10;&#9;&#9;&#9;l11.9,20.7l11.9,20.7l-11.9,20.7L938,275.6h-47.7l-11.9-20.7l-11.9-20.7l11.9-20.7L890.3,193z M1018.2,239.3l11.9,20.7l11.9,20.7&#10;&#9;&#9;&#9;l-11.9,20.7l-11.9,20.7h-47.7l-11.9-20.7l-11.9-20.7l11.9-20.7l11.9-20.7H1018.2z M1050.7,193h47.7l11.9,20.7l11.9,20.7&#10;&#9;&#9;&#9;l-11.9,20.7l-11.9,20.7h-47.7l-11.9-20.7l-11.9-20.7l11.9-20.7L1050.7,193z M1122.2,326.9l-11.9,20.7l-11.9,20.7h-47.7l-11.9-20.7&#10;&#9;&#9;&#9;l-11.9-20.7l11.9-20.7l11.9-20.7h47.7l11.9,20.7L1122.2,326.9z M1122.2,512.1l-11.9,20.7l-11.9,20.7h-47.7l-11.9-20.7l-11.9-20.7&#10;&#9;&#9;&#9;l11.9-20.7l11.9-20.7h47.7l11.9,20.7L1122.2,512.1z M1122.2,604.7l-11.9,20.7l-11.9,20.7h-47.7l-11.9-20.7l-11.9-20.7l11.9-20.7&#10;&#9;&#9;&#9;l11.9-20.7h47.7l11.9,20.7L1122.2,604.7z M1122.2,697.3l-11.9,20.7l-11.9,20.7h-47.7l-11.9-20.7l-11.9-20.7l11.9-20.7l11.9-20.7&#10;&#9;&#9;&#9;h47.7l11.9,20.7L1122.2,697.3z M938,738.6h-47.7L878.3,718l-11.9-20.7l11.9-20.7l11.9-20.7H938l11.9,20.7l11.9,20.7L949.9,718&#10;&#9;&#9;&#9;L938,738.6z M777.6,738.6h-47.7L717.9,718L706,697.3l11.9-20.7l11.9-20.7h47.7l11.9,20.7l11.9,20.7L789.5,718L777.6,738.6z&#10;&#9;&#9;&#9; M617.2,738.6h-47.7L557.5,718l-11.9-20.7l11.9-20.7l11.9-20.7h47.7l11.9,20.7l11.9,20.7L629.1,718L617.2,738.6z M456.7,738.6&#10;&#9;&#9;&#9;h-47.7L397.1,718l-11.9-20.7l11.9-20.7l11.9-20.7h47.7l11.9,20.7l11.9,20.7L468.7,718L456.7,738.6z M328.9,692.3l-11.9-20.7&#10;&#9;&#9;&#9;L305,651l11.9-20.7l11.9-20.7h47.7l11.9,20.7l11.9,20.7l-11.9,20.7l-11.9,20.7H328.9z M305,558.4l11.9-20.7l11.9-20.7h47.7&#10;&#9;&#9;&#9;l11.9,20.7l11.9,20.7L388.5,579l-11.9,20.7h-47.7L316.9,579L305,558.4z M305,465.8l11.9-20.7l11.9-20.7h47.7l11.9,20.7l11.9,20.7&#10;&#9;&#9;&#9;l-11.9,20.7l-11.9,20.7h-47.7l-11.9-20.7L305,465.8z M328.9,331.9h47.7l11.9,20.7l11.9,20.7l-23.8,41.3h-47.7L305,373.2l11.9-20.7&#10;&#9;&#9;&#9;L328.9,331.9z M409.1,285.6h47.7l11.9,20.7l11.9,20.7l-11.9,20.7l-11.9,20.7h-47.7l-11.9-20.7l-11.9-20.7l11.9-20.7L409.1,285.6z&#10;&#9;&#9;&#9; M569.5,285.6h47.7l11.9,20.7l11.9,20.7l-11.9,20.7l-11.9,20.7h-47.7l-11.9-20.7l-11.9-20.7l11.9-20.7L569.5,285.6z M729.9,285.6&#10;&#9;&#9;&#9;h47.7l11.9,20.7l11.9,20.7l-11.9,20.7l-11.9,20.7h-47.7l-11.9-20.7L706,326.9l11.9-20.7L729.9,285.6z M857.8,331.9l11.9,20.7&#10;&#9;&#9;&#9;l11.9,20.7l-23.8,41.3h-47.7l-0.2-0.3l-23.7-41l11.9-20.7l11.9-20.7H857.8z M890.3,285.6H938l11.9,20.7l11.9,20.7l-11.9,20.7&#10;&#9;&#9;&#9;L938,368.2h-47.7l-11.9-20.7l-11.9-20.7l11.9-20.7L890.3,285.6z M1018.2,331.9l11.9,20.7l11.9,20.7l-23.8,41.3h-47.7l-0.2-0.3&#10;&#9;&#9;&#9;l-23.7-41l11.9-20.7l11.9-20.7H1018.2z M1042,465.8l-11.9,20.7l-11.9,20.7h-47.7l-11.9-20.7l-11.9-20.7l11.9-20.7l11.9-20.7h47.7&#10;&#9;&#9;&#9;l11.9,20.7L1042,465.8z M1042,558.4l-11.9,20.7l-11.9,20.7h-47.7L958.5,579l-11.9-20.7l11.9-20.7l11.9-20.7h47.7l11.9,20.7&#10;&#9;&#9;&#9;L1042,558.4z M938,646h-47.7l-11.9-20.7l-11.9-20.7l11.9-20.7l11.9-20.7H938l11.9,20.7l11.9,20.7l-11.9,20.7L938,646z M777.6,646&#10;&#9;&#9;&#9;h-47.7l-11.9-20.7L706,604.7l11.9-20.7l11.9-20.7h47.7l11.9,20.7l11.9,20.7l-11.9,20.7L777.6,646z M617.2,646h-47.7l-11.9-20.7&#10;&#9;&#9;&#9;l-11.9-20.7l11.9-20.7l11.9-20.7h47.7l11.9,20.7l11.9,20.7l-11.9,20.7L617.2,646z M456.7,646h-47.7l-11.9-20.7l-11.9-20.7&#10;&#9;&#9;&#9;l11.9-20.7l11.9-20.7h47.7l11.9,20.7l11.9,20.7l-11.9,20.7L456.7,646z M385.2,512.1l11.9-20.7l11.9-20.7h47.7l11.9,20.7l11.9,20.7&#10;&#9;&#9;&#9;l-11.9,20.7l-11.9,20.7h-47.7l-11.9-20.7L385.2,512.1z M857.8,424.5l11.9,20.7l11.9,20.7l-11.9,20.7l-11.9,20.7h-47.7l-11.9-20.7&#10;&#9;&#9;&#9;l-11.9-20.7l11.9-20.7l11.9-20.7H857.8z M961.8,512.1l-11.9,20.7L938,553.4h-47.7l-11.9-20.7l-11.9-20.7l11.9-20.7l11.9-20.7H938&#10;&#9;&#9;&#9;l11.9,20.7L961.8,512.1z M938,460.8h-47.7l-11.9-20.7l-11.9-20.7l2.4-4.1l21.5-37.2H938l23.8,41.3l-11.9,20.7L938,460.8z&#10;&#9;&#9;&#9; M777.6,553.4h-47.7l-11.9-20.7L706,512.1l11.9-20.7l11.9-20.7h47.7l11.9,20.7l11.9,20.7l-11.9,20.7L777.6,553.4z M706,419.5&#10;&#9;&#9;&#9;l23.8-41.3h47.7l23.8,41.3l-11.9,20.7l-11.9,20.7h-47.7l-11.9-20.7L706,419.5z M697.4,424.5l11.9,20.7l11.9,20.7l-11.9,20.7&#10;&#9;&#9;&#9;l-11.9,20.7h-47.7l-11.9-20.7l-11.9-20.7l11.9-20.7l11.9-20.7H697.4z M617.2,553.4h-47.7l-11.9-20.7l-11.9-20.7l11.9-20.7&#10;&#9;&#9;&#9;l11.9-20.7h47.7l11.9,20.7l11.9,20.7l-11.9,20.7L617.2,553.4z M545.6,419.5l0.7-1.2l23.1-40.1h47.7l23.1,40.1l0.7,1.2l-11.9,20.7&#10;&#9;&#9;&#9;l-11.9,20.7h-47.7l-11.9-20.7L545.6,419.5z M537,424.5l11.9,20.7l11.9,20.7l-11.9,20.7L537,507.1h-47.7l-11.9-20.7l-11.9-20.7&#10;&#9;&#9;&#9;l11.9-20.7l11.9-20.7H537z M385.2,419.5l0.7-1.2l23.1-40.1h47.7l23.1,40.1l0.7,1.2l-11.9,20.7l-11.9,20.7h-47.7l-11.9-20.7&#10;&#9;&#9;&#9;L385.2,419.5z M489.3,599.7L477.3,579l-11.9-20.7l11.9-20.7l11.9-20.7H537l11.9,20.7l11.9,20.7L548.9,579L537,599.7H489.3z&#10;&#9;&#9;&#9; M649.7,599.7L637.7,579l-11.9-20.7l11.9-20.7l11.9-20.7h47.7l11.9,20.7l11.9,20.7L709.3,579l-11.9,20.7H649.7z M810.1,599.7&#10;&#9;&#9;&#9;L798.1,579l-11.9-20.7l11.9-20.7l11.9-20.7h47.7l11.9,20.7l11.9,20.7L869.7,579l-11.9,20.7H810.1z M697.4,331.9l11.9,20.7&#10;&#9;&#9;&#9;l11.9,20.7l-23.8,41.3h-47.7l-23.8-41.3l11.9-20.7l11.9-20.7H697.4z M537,331.9l11.9,20.7l11.9,20.7L537,414.5h-47.7l-23.8-41.3&#10;&#9;&#9;&#9;l11.9-20.7l11.9-20.7H537z M489.3,692.3l-11.9-20.7L465.4,651l11.9-20.7l11.9-20.7H537l11.9,20.7l11.9,20.7l-11.9,20.7L537,692.3&#10;&#9;&#9;&#9;H489.3z M649.7,692.3l-11.9-20.7L625.8,651l11.9-20.7l11.9-20.7h47.7l11.9,20.7l11.9,20.7l-11.9,20.7l-11.9,20.7H649.7z&#10;&#9;&#9;&#9; M810.1,692.3l-11.9-20.7L786.2,651l11.9-20.7l11.9-20.7h47.7l11.9,20.7l11.9,20.7l-11.9,20.7l-11.9,20.7H810.1z M970.5,692.3&#10;&#9;&#9;&#9;l-11.9-20.7L946.6,651l11.9-20.7l11.9-20.7h47.7l11.9,20.7L1042,651l-11.9,20.7l-11.9,20.7H970.5z M1098.4,460.8h-47.7l-11.9-20.7&#10;&#9;&#9;&#9;l-11.9-20.7l2.4-4.1l21.5-37.2h47.7l23.8,41.3l-11.9,20.7L1098.4,460.8z M697.4,239.3l11.9,20.7l11.9,20.7l-11.9,20.7l-11.9,20.7&#10;&#9;&#9;&#9;h-47.7l-11.9-20.7l-11.9-20.7l11.9-20.7l11.9-20.7H697.4z M537,239.3l11.9,20.7l11.9,20.7l-11.9,20.7L537,321.9h-47.7l-11.9-20.7&#10;&#9;&#9;&#9;l-11.9-20.7l11.9-20.7l11.9-20.7H537z M376.5,239.3l11.9,20.7l11.9,20.7l-11.9,20.7l-11.9,20.7h-47.7l-11.9-20.7L305,280.6&#10;&#9;&#9;&#9;l11.9-20.7l11.9-20.7H376.5z M224.8,419.5l0.7-1.2l23.1-40.1h47.7l23.1,40.1l0.7,1.2l-11.9,20.7l-11.9,20.7h-47.7l-11.9-20.7&#10;&#9;&#9;&#9;L224.8,419.5z M328.9,784.9l-11.9-20.7L305,743.6l11.9-20.7l11.9-20.7h47.7l11.9,20.7l11.9,20.7l-11.9,20.7l-11.9,20.7H328.9z&#10;&#9;&#9;&#9; M489.3,784.9l-11.9-20.7l-11.9-20.7l11.9-20.7l11.9-20.7H537l11.9,20.7l11.9,20.7l-11.9,20.7L537,784.9H489.3z M649.7,784.9&#10;&#9;&#9;&#9;l-11.9-20.7l-11.9-20.7l11.9-20.7l11.9-20.7h47.7l11.9,20.7l11.9,20.7l-11.9,20.7l-11.9,20.7H649.7z M1202.4,373.2l-23.7,41&#10;&#9;&#9;&#9;l-0.2,0.3h-47.7l-0.2-0.3l-23.7-41l11.9-20.7l11.9-20.7h47.7l11.9,20.7L1202.4,373.2z M697.4,146.7l11.9,20.7l11.9,20.7&#10;&#9;&#9;&#9;l-11.9,20.7l-11.9,20.7h-47.7l-11.9-20.7L625.8,188l11.9-20.7l11.9-20.7H697.4z M537,146.7l11.9,20.7l11.9,20.7l-11.9,20.7&#10;&#9;&#9;&#9;L537,229.3h-47.7l-11.9-20.7L465.4,188l11.9-20.7l11.9-20.7H537z M376.5,146.7l11.9,20.7l11.9,20.7l-11.9,20.7l-11.9,20.7h-47.7&#10;&#9;&#9;&#9;l-11.9-20.7L305,188l11.9-20.7l11.9-20.7H376.5z M168.5,331.9h47.7l11.9,20.7l11.9,20.7l-23.8,41.3h-47.7l-23.8-41.3l11.9-20.7&#10;&#9;&#9;&#9;L168.5,331.9z M328.9,877.5l-11.9-20.7L305,836.2l11.9-20.7l11.9-20.7h47.7l11.9,20.7l11.9,20.7l-11.9,20.7l-11.9,20.7H328.9z&#10;&#9;&#9;&#9; M489.3,877.5l-11.9-20.7l-11.9-20.7l11.9-20.7l11.9-20.7H537l11.9,20.7l11.9,20.7l-11.9,20.7L537,877.5H489.3z M649.7,877.5&#10;&#9;&#9;&#9;l-11.9-20.7l-11.9-20.7l11.9-20.7l11.9-20.7h47.7l11.9,20.7l11.9,20.7l-11.9,20.7l-11.9,20.7H649.7z M810.1,877.5l-11.9-20.7&#10;&#9;&#9;&#9;l-11.9-20.7l11.9-20.7l11.9-20.7h47.7l11.9,20.7l11.9,20.7l-11.9,20.7l-11.9,20.7H810.1z M970.5,877.5l-11.9-20.7l-11.9-20.7&#10;&#9;&#9;&#9;l11.9-20.7l11.9-20.7h47.7l11.9,20.7l11.9,20.7l-11.9,20.7l-11.9,20.7H970.5z M1130.9,877.5l-11.9-20.7l-11.9-20.7l11.9-20.7&#10;&#9;&#9;&#9;l11.9-20.7h47.7l11.9,20.7l11.9,20.7l-11.9,20.7l-11.9,20.7H1130.9z M1258.8,460.8h-47.7l-11.9-20.7l-11.9-20.7l23.8-41.3h47.7&#10;&#9;&#9;&#9;l21.5,37.2l2.4,4.1l-11.9,20.7L1258.8,460.8z M697.4,54l11.9,20.7l11.9,20.7L709.3,116l-11.9,20.7h-47.7L637.7,116l-11.9-20.7&#10;&#9;&#9;&#9;l11.9-20.7L649.7,54H697.4z M537,54l11.9,20.7l11.9,20.7L548.9,116L537,136.7h-47.7L477.3,116l-11.9-20.7l11.9-20.7L489.3,54H537z&#10;&#9;&#9;&#9; M376.5,54l11.9,20.7l11.9,20.7L388.5,116l-11.9,20.7h-47.7L316.9,116L305,95.3l11.9-20.7L328.9,54H376.5z M216.1,54l11.9,20.7&#10;&#9;&#9;&#9;L240,95.3L228.1,116l-11.9,20.7h-47.7L156.5,116l-11.9-20.7l11.9-20.7L168.5,54H216.1z M64.4,419.5l0.7-1.2l23.1-40.1h47.7&#10;&#9;&#9;&#9;l23.1,40.1l0.7,1.2l-11.9,20.7l-11.9,20.7H88.2l-11.9-20.7L64.4,419.5z M168.5,970.1l-11.9-20.7l-11.9-20.7l11.9-20.7l11.9-20.7&#10;&#9;&#9;&#9;h47.7l11.9,20.7l11.9,20.7l-11.9,20.7l-11.9,20.7H168.5z M328.9,970.1l-11.9-20.7L305,928.8l11.9-20.7l11.9-20.7h47.7l11.9,20.7&#10;&#9;&#9;&#9;l11.9,20.7l-11.9,20.7l-11.9,20.7H328.9z M489.3,970.1l-11.9-20.7l-11.9-20.7l11.9-20.7l11.9-20.7H537l11.9,20.7l11.9,20.7&#10;&#9;&#9;&#9;l-11.9,20.7L537,970.1H489.3z M649.7,970.1l-11.9-20.7l-11.9-20.7l11.9-20.7l11.9-20.7h47.7l11.9,20.7l11.9,20.7l-11.9,20.7&#10;&#9;&#9;&#9;l-11.9,20.7H649.7z M1362.8,373.2l-23.7,41l-0.2,0.3h-47.7l-23.8-41.3l11.9-20.7l11.9-20.7h47.7l11.9,20.7L1362.8,373.2z&#10;&#9;&#9;&#9; M1339,136.7h-47.7l-11.9-20.7l-11.9-20.7l11.9-20.7l11.9-20.7h47.7l11.9,20.7l11.9,20.7l-11.9,20.7L1339,136.7z M1291.3-38.6&#10;&#9;&#9;&#9;h47.7l23.8,41.3l-11.9,20.7L1339,44h-47.7l-11.9-20.7l-11.9-20.7L1291.3-38.6z M1130.9-38.6h47.7l23.8,41.3l-11.9,20.7L1178.6,44&#10;&#9;&#9;&#9;h-47.7l-11.9-20.7L1107,2.7L1130.9-38.6z M970.5-38.6h47.7L1042,2.7l-11.9,20.7L1018.2,44h-47.7l-11.9-20.7L946.6,2.7L970.5-38.6z&#10;&#9;&#9;&#9; M810.1-38.6h47.7l23.8,41.3l-11.9,20.7L857.8,44h-47.7l-11.9-20.7L786.2,2.7L810.1-38.6z M649.7-38.6h47.7l23.8,41.3l-11.9,20.7&#10;&#9;&#9;&#9;L697.4,44h-47.7l-11.9-20.7L625.8,2.7L649.7-38.6z M489.3-38.6H537l23.8,41.3l-11.9,20.7L537,44h-47.7l-11.9-20.7L465.4,2.7&#10;&#9;&#9;&#9;L489.3-38.6z M328.9-38.6h47.7l23.8,41.3l-11.9,20.7L376.5,44h-47.7l-11.9-20.7L305,2.7L328.9-38.6z M168.5-38.6h47.7L240,2.7&#10;&#9;&#9;&#9;l-11.9,20.7L216.1,44h-47.7l-11.9-20.7L144.6,2.7L168.5-38.6z M8-38.6h47.7L79.6,2.7L67.7,23.4L55.7,44H8L-15.8,2.7L8-38.6z M8,54&#10;&#9;&#9;&#9;h47.7l11.9,20.7l11.9,20.7L67.7,116l-11.9,20.7H8l-23.8-41.3L8,54z M8,146.7h47.7l11.9,20.7L79.6,188l-11.9,20.7l-11.9,20.7H8&#10;&#9;&#9;&#9;L-15.8,188L8,146.7z M8,239.3h47.7l11.9,20.7l11.9,20.7l-11.9,20.7l-11.9,20.7H8l-23.8-41.3L8,239.3z M8,331.9h47.7l11.9,20.7&#10;&#9;&#9;&#9;l11.9,20.7l-23.8,41.3H8l-23.8-41.3L8,331.9z M8,424.5h47.7l11.9,20.7l11.9,20.7l-11.9,20.7l-11.9,20.7H8l-23.8-41.3L8,424.5z&#10;&#9;&#9;&#9; M8,517.1h47.7l11.9,20.7l11.9,20.7L67.7,579l-11.9,20.7H8l-23.8-41.3L8,517.1z M8,609.7h47.7l11.9,20.7L79.6,651l-11.9,20.7&#10;&#9;&#9;&#9;l-11.9,20.7H8L-15.8,651L8,609.7z M8,702.3h47.7L67.7,723l11.9,20.7l-11.9,20.7l-11.9,20.7H8l-23.8-41.3L8,702.3z M8,794.9h47.7&#10;&#9;&#9;&#9;l11.9,20.7l11.9,20.7l-11.9,20.7l-11.9,20.7H8l-23.8-41.3L8,794.9z M8,887.5h47.7l11.9,20.7l11.9,20.7l-11.9,20.7l-11.9,20.7H8&#10;&#9;&#9;&#9;l-23.8-41.3L8,887.5z M55.7,1062.7H8l-23.8-41.3L8,980.1h47.7l11.9,20.7l11.9,20.7L55.7,1062.7z M216.1,1062.7h-47.7l-23.8-41.3&#10;&#9;&#9;&#9;l11.9-20.7l11.9-20.7h47.7l11.9,20.7l11.9,20.7L216.1,1062.7z M376.5,1062.7h-47.7l-23.8-41.3l11.9-20.7l11.9-20.7h47.7l11.9,20.7&#10;&#9;&#9;&#9;l11.9,20.7L376.5,1062.7z M537,1062.7h-47.7l-23.8-41.3l11.9-20.7l11.9-20.7H537l11.9,20.7l11.9,20.7L537,1062.7z M697.4,1062.7&#10;&#9;&#9;&#9;h-47.7l-23.8-41.3l11.9-20.7l11.9-20.7h47.7l11.9,20.7l11.9,20.7L697.4,1062.7z M857.8,1062.7h-47.7l-23.8-41.3l11.9-20.7&#10;&#9;&#9;&#9;l11.9-20.7h47.7l11.9,20.7l11.9,20.7L857.8,1062.7z M1018.2,1062.7h-47.7l-23.8-41.3l11.9-20.7l11.9-20.7h47.7l11.9,20.7&#10;&#9;&#9;&#9;l11.9,20.7L1018.2,1062.7z M1178.6,1062.7h-47.7l-23.8-41.3l11.9-20.7l11.9-20.7h47.7l11.9,20.7l11.9,20.7L1178.6,1062.7z&#10;&#9;&#9;&#9; M1339,1062.7h-47.7l-23.8-41.3l11.9-20.7l11.9-20.7h47.7l11.9,20.7l11.9,20.7L1339,1062.7z M1419.2,1016.4h-47.7l-11.9-20.7&#10;&#9;&#9;&#9;l-11.9-20.7l11.9-20.7l11.9-20.7h47.7l23.8,41.3L1419.2,1016.4z M1419.2,923.8h-47.7l-11.9-20.7l-11.9-20.7l11.9-20.7l11.9-20.7&#10;&#9;&#9;&#9;h47.7l23.8,41.3L1419.2,923.8z M1419.2,831.2h-47.7l-11.9-20.7l-11.9-20.7l11.9-20.7l11.9-20.7h47.7l23.8,41.3L1419.2,831.2z&#10;&#9;&#9;&#9; M1419.2,738.6h-47.7l-11.9-20.7l-11.9-20.7l11.9-20.7l11.9-20.7h47.7l23.8,41.3L1419.2,738.6z M1419.2,646h-47.7l-11.9-20.7&#10;&#9;&#9;&#9;l-11.9-20.7l11.9-20.7l11.9-20.7h47.7l23.8,41.3L1419.2,646z M1419.2,553.4h-47.7l-11.9-20.7l-11.9-20.7l11.9-20.7l11.9-20.7h47.7&#10;&#9;&#9;&#9;l23.8,41.3L1419.2,553.4z M1419.2,460.8h-47.7l-11.9-20.7l-11.9-20.7l23.8-41.3h47.7l23.8,41.3L1419.2,460.8z M1419.2,368.2h-47.7&#10;&#9;&#9;&#9;l-11.9-20.7l-11.9-20.7l11.9-20.7l11.9-20.7h47.7l23.8,41.3L1419.2,368.2z M1419.2,275.6h-47.7l-11.9-20.7l-11.9-20.7l11.9-20.7&#10;&#9;&#9;&#9;l11.9-20.7h47.7l23.8,41.3L1419.2,275.6z M1419.2,183h-47.7l-11.9-20.7l-11.9-20.7l11.9-20.7l11.9-20.7h47.7l23.8,41.3L1419.2,183&#10;&#9;&#9;&#9;z" style="clip-path: url('#SVGID_2_'); fill: rgb(255, 255, 255); fill-opacity: 0.65; stroke: rgb(255, 200, 0); paint-order: fill; stroke-width: 5;"/>
	<path d="M 429.67742919921875 594.1935424804688" style="fill: rgb(0, 0, 0); fill-opacity: 1; stroke: rgb(204, 167, 0); stroke-opacity: 1; stroke-width: 1; paint-order: fill;"/></g>

</svg>